<svg width="664" height="288" viewBox="0 0 664 288" fill="none" xmlns="http://www.w3.org/2000/svg">
<path d="M166.2 135.4C165.5 133.8 164 132.9 162.3 132.9L110.8 133.3C83 133.3 59.6 112.5 56.2 85L56.1 84.5L56.6 84.3C63.4 81.4 70.7 79.9 78.2 79.9H135.2C138.8 79.9 142.2 78 144 74.8L183.4 6.4C184.2 4.9 184.1 3.2 183.1 1.8C182.4 0.6 181 0 179.5 0H110.8C91.2 0 72.5 7.3 58 20.5C43.7 33.7 34.8 51.6 33 70.9V71.2L32.8 71.4C12.2 86.1 0 109.8 0 134.9C0 178 35.1 213.1 78.3 213.1L117.8 212.8C121.4 212.8 124.7 210.8 126.5 207.7L165.8 139.4C166.6 138.1 166.7 136.6 166.2 135.4ZM78.2 190C61 190 45 182.1 34.5 168.4C24 154.7 20.6 137 25.2 119.8C27 113.3 30.1 107.1 34.6 101.4L35.7 100.1L36.1 101.3C40.9 117 50.8 131 64 140.9C77.6 151.1 93.9 156.5 110.9 156.5L124.2 156.4C125.3 156.4 126.3 157 126.8 157.9C127.3 158.8 127.3 159.9 126.8 160.9L112.2 186.3C110.9 188.5 108.6 189.9 106.1 189.9L78.2 190ZM59.7 57.9C68.1 36.8 88.2 23.2 110.8 23.2H141.8C142.9 23.2 143.8 23.7 144.4 24.7C144.9 25.6 144.9 26.7 144.4 27.7L129.7 53.2C128.4 55.4 126.1 56.8 123.5 56.8H78.2C72.2 56.8 66.2 57.5 60.4 58.8L59.2 59L59.7 57.9Z" fill="#06A76C"/>
<path d="M243.8 132.9C224.2 132.9 206.4 139.3 193.6 151C178.8 164.6 170.9 185.2 170.9 210.6C170.9 235.9 178.7 256.4 193.5 269.9C206.2 281.4 224 287.7 243.7 287.7C260.2 287.7 299.5 282.8 307.8 237.2C308 236.1 307.7 235.1 307 234.3C306.3 233.5 305.4 233.1 304.4 233.1H283.6C282.1 233.1 280.8 234.1 280.3 235.6C275.2 253.2 262.4 264.2 243.4 264.2C215.7 264.2 199.2 243.1 199.2 210.7C199.2 195.2 203.1 180.4 210.5 171.3C218.3 161.7 229.6 156.6 243.4 156.6C262.5 156.6 275.2 167.9 280.4 185.5C280.8 187 282.2 188.1 283.7 188.1H304.4C305.4 188.1 306.3 187.7 307 186.9C307.7 186.1 308 185 307.8 183.9C299 139.7 263.9 132.9 243.8 132.9Z" fill="#393939"/>
<path d="M527.801 99.6004V79.9004C527.801 78.8004 526.901 77.9004 525.801 77.9004H505.901C478.401 77.9004 461.901 94.0004 461.901 120.9V130.4V132.2V134H460.101H458.301H442.601C441.301 134 440.301 135 440.301 136.3V153.9C440.301 154.5 440.501 155.1 441.001 155.5C441.401 155.9 442.001 156.2 442.601 156.2H458.301H460.101H461.901V158V159.8V283.9C461.901 285.2 462.901 286.2 464.201 286.2H490.401C491.701 286.2 492.701 285.2 492.701 283.9V159.7V157.9V156.1H494.501H496.301H515.201C516.501 156.1 517.501 155.1 517.501 153.8V136.2C517.501 134.9 516.501 133.9 515.201 133.9H496.301H494.501H492.701V132.1V130.3V125.2C492.701 109.2 500.001 101.4 515.101 101.4H525.801C526.901 101.6 527.801 100.7 527.801 99.6004Z" fill="#393939"/>
<path d="M641 269.3C655.7 255.7 663.5 235.3 663.5 210.4C663.5 185.5 655.7 165.1 641 151.5C628.2 139.6 610.4 133.1 591 133.1C557.5 133.1 518.5 153.3 518.5 210.4C518.5 236.6 526.5 256.8 542.2 270.5C554.9 281.6 572.3 287.7 591 287.7C610.4 287.7 628.2 281.1 641 269.3ZM559.7 251.6C551.2 242.4 546.8 227.3 546.8 210.4C546.8 193.5 551.1 178.4 559.7 169.2C567.5 160.8 578.3 156.4 591 156.4C603.6 156.4 614.3 160.8 622 169.3C630.5 178.6 634.8 193.6 634.8 210.5C634.8 227.4 630.5 242.5 622 251.7C614.3 260.1 603.5 264.5 591 264.5C578.3 264.4 567.5 260 559.7 251.6Z" fill="#393939"/>
<path d="M324.8 286.001H426.2C428.1 286.001 429.7 284.401 429.7 282.501V266.901C429.7 265.001 428.1 263.401 426.2 263.401H397.6H357.2H356.7H355V261.601V261.101V260.401C355 248.801 365.1 241.201 387.7 228.301L389.3 227.401C407.6 217.401 430.3 205.001 430.3 176.401C430.3 149.001 410.4 132.701 377.2 132.701C356.2 132.701 341.1 139.001 332.3 151.401C324.8 161.901 323.7 174.501 323.7 181.101V184.201C323.7 186.101 325.3 187.701 327.2 187.701H347.9C349.8 187.701 351.4 186.101 351.4 184.201V182.401C351.4 166.101 361.1 155.901 376.8 155.901C385 155.901 391.8 158.301 396.1 162.701C399.9 166.601 401.7 171.801 401.5 178.401C401.3 195.001 387.5 202.601 369.9 212.201C367.4 213.501 364.9 214.901 362.4 216.401C328 236.201 321.5 254.301 321.5 280.601V282.201C321.3 284.501 322.9 286.001 324.8 286.001Z" fill="#393939"/>
</svg>
