<svg width="232" height="25" viewBox="0 0 232 25" fill="none" xmlns="http://www.w3.org/2000/svg">
<path d="M20.5455 8H17.7273C17.5606 7.18939 17.2689 6.47727 16.8523 5.86364C16.4432 5.25 15.9432 4.73485 15.3523 4.31818C14.7689 3.89394 14.1212 3.57576 13.4091 3.36364C12.697 3.15151 11.9545 3.04545 11.1818 3.04545C9.77273 3.04545 8.49621 3.40151 7.35227 4.11364C6.21591 4.82576 5.31061 5.875 4.63636 7.26136C3.9697 8.64773 3.63636 10.3485 3.63636 12.3636C3.63636 14.3788 3.9697 16.0795 4.63636 17.4659C5.31061 18.8523 6.21591 19.9015 7.35227 20.6136C8.49621 21.3258 9.77273 21.6818 11.1818 21.6818C11.9545 21.6818 12.697 21.5758 13.4091 21.3636C14.1212 21.1515 14.7689 20.8371 15.3523 20.4205C15.9432 19.9962 16.4432 19.4773 16.8523 18.8636C17.2689 18.2424 17.5606 17.5303 17.7273 16.7273H20.5455C20.3333 17.9167 19.947 18.9811 19.3864 19.9205C18.8258 20.8598 18.1288 21.6591 17.2955 22.3182C16.4621 22.9697 15.5265 23.4659 14.4886 23.8068C13.4583 24.1477 12.3561 24.3182 11.1818 24.3182C9.19697 24.3182 7.43182 23.8333 5.88636 22.8636C4.34091 21.8939 3.125 20.5152 2.23864 18.7273C1.35227 16.9394 0.909091 14.8182 0.909091 12.3636C0.909091 9.90909 1.35227 7.78788 2.23864 6C3.125 4.21212 4.34091 2.83333 5.88636 1.86364C7.43182 0.893939 9.19697 0.40909 11.1818 0.40909C12.3561 0.40909 13.4583 0.579545 14.4886 0.920454C15.5265 1.26136 16.4621 1.76136 17.2955 2.42045C18.1288 3.07197 18.8258 3.86742 19.3864 4.80682C19.947 5.73864 20.3333 6.80303 20.5455 8ZM27.4176 13.5V24H24.7358V0.727272H27.4176V9.27273H27.6449C28.054 8.37121 28.6676 7.6553 29.4858 7.125C30.3116 6.58712 31.41 6.31818 32.7812 6.31818C33.9706 6.31818 35.0123 6.55682 35.9062 7.03409C36.8002 7.50379 37.4934 8.22727 37.9858 9.20455C38.4858 10.1742 38.7358 11.4091 38.7358 12.9091V24H36.054V13.0909C36.054 11.7045 35.6941 10.6326 34.9744 9.875C34.2623 9.10985 33.2737 8.72727 32.0085 8.72727C31.1297 8.72727 30.3419 8.91288 29.6449 9.28409C28.9555 9.6553 28.41 10.197 28.0085 10.9091C27.6146 11.6212 27.4176 12.4848 27.4176 13.5ZM50.733 24.3636C49.1572 24.3636 47.7746 23.9886 46.5852 23.2386C45.4034 22.4886 44.4792 21.4394 43.8125 20.0909C43.1534 18.7424 42.8239 17.1667 42.8239 15.3636C42.8239 13.5455 43.1534 11.9583 43.8125 10.6023C44.4792 9.24621 45.4034 8.19318 46.5852 7.44318C47.7746 6.69318 49.1572 6.31818 50.733 6.31818C52.3087 6.31818 53.6875 6.69318 54.8693 7.44318C56.0587 8.19318 56.983 9.24621 57.642 10.6023C58.3087 11.9583 58.642 13.5455 58.642 15.3636C58.642 17.1667 58.3087 18.7424 57.642 20.0909C56.983 21.4394 56.0587 22.4886 54.8693 23.2386C53.6875 23.9886 52.3087 24.3636 50.733 24.3636ZM50.733 21.9545C51.9299 21.9545 52.9148 21.6477 53.6875 21.0341C54.4602 20.4205 55.0322 19.6136 55.4034 18.6136C55.7746 17.6136 55.9602 16.5303 55.9602 15.3636C55.9602 14.197 55.7746 13.1098 55.4034 12.1023C55.0322 11.0947 54.4602 10.2803 53.6875 9.65909C52.9148 9.03788 51.9299 8.72727 50.733 8.72727C49.536 8.72727 48.5511 9.03788 47.7784 9.65909C47.0057 10.2803 46.4337 11.0947 46.0625 12.1023C45.6913 13.1098 45.5057 14.197 45.5057 15.3636C45.5057 16.5303 45.6913 17.6136 46.0625 18.6136C46.4337 19.6136 47.0057 20.4205 47.7784 21.0341C48.5511 21.6477 49.536 21.9545 50.733 21.9545ZM62.7358 24V6.54545H65.3267V9.18182H65.5085C65.8267 8.31818 66.4025 7.61742 67.2358 7.07954C68.0691 6.54167 69.0085 6.27273 70.054 6.27273C70.2509 6.27273 70.4972 6.27651 70.7926 6.28409C71.0881 6.29167 71.3116 6.30303 71.4631 6.31818V9.04545C71.3722 9.02273 71.1638 8.98864 70.8381 8.94318C70.5199 8.89015 70.1828 8.86364 69.8267 8.86364C68.9782 8.86364 68.2206 9.04167 67.554 9.39773C66.8949 9.74621 66.3722 10.2311 65.9858 10.8523C65.607 11.4659 65.4176 12.1667 65.4176 12.9545V24H62.7358ZM80.7017 24.3636C79.2472 24.3636 77.9631 23.9962 76.8494 23.2614C75.7358 22.5189 74.8646 21.4735 74.2358 20.125C73.607 18.7689 73.2926 17.1667 73.2926 15.3182C73.2926 13.4848 73.607 11.8939 74.2358 10.5455C74.8646 9.19697 75.7396 8.1553 76.8608 7.42045C77.982 6.68561 79.2775 6.31818 80.7472 6.31818C81.8835 6.31818 82.7813 6.50758 83.4403 6.88636C84.107 7.25758 84.6146 7.68182 84.9631 8.15909C85.3191 8.62879 85.5956 9.01515 85.7926 9.31818H86.0199V0.727272H88.7017V24H86.1108V21.3182H85.7926C85.5956 21.6364 85.3153 22.0379 84.9517 22.5227C84.5881 23 84.0691 23.428 83.3949 23.8068C82.7206 24.178 81.8229 24.3636 80.7017 24.3636ZM81.0653 21.9545C82.1411 21.9545 83.0502 21.6742 83.7926 21.1136C84.535 20.5455 85.0994 19.7614 85.4858 18.7614C85.8722 17.7538 86.0653 16.5909 86.0653 15.2727C86.0653 13.9697 85.8759 12.8295 85.4972 11.8523C85.1184 10.8674 84.5578 10.1023 83.8153 9.55682C83.0729 9.00379 82.1563 8.72727 81.0653 8.72727C79.929 8.72727 78.982 9.01894 78.2244 9.60227C77.4744 10.178 76.91 10.9621 76.5312 11.9545C76.16 12.9394 75.9744 14.0455 75.9744 15.2727C75.9744 16.5152 76.1638 17.6439 76.5426 18.6591C76.929 19.6667 77.4972 20.4697 78.2472 21.0682C79.0047 21.6591 79.9441 21.9545 81.0653 21.9545ZM103.349 24V0.727272H117.304V3.22727H106.168V11.0909H116.259V13.5909H106.168V24H103.349ZM121.767 24V6.54545H124.449V24H121.767ZM123.131 3.63636C122.608 3.63636 122.157 3.45833 121.778 3.10227C121.407 2.74621 121.222 2.31818 121.222 1.81818C121.222 1.31818 121.407 0.890151 121.778 0.53409C122.157 0.17803 122.608 0 123.131 0C123.653 0 124.1 0.17803 124.472 0.53409C124.85 0.890151 125.04 1.31818 125.04 1.81818C125.04 2.31818 124.85 2.74621 124.472 3.10227C124.1 3.45833 123.653 3.63636 123.131 3.63636ZM132.043 13.5V24H129.361V6.54545H131.952V9.27273H132.179C132.588 8.38636 133.209 7.67424 134.043 7.13636C134.876 6.59091 135.952 6.31818 137.27 6.31818C138.452 6.31818 139.486 6.56061 140.372 7.04545C141.259 7.52273 141.948 8.25 142.44 9.22727C142.933 10.197 143.179 11.4242 143.179 12.9091V24H140.497V13.0909C140.497 11.7197 140.141 10.6515 139.429 9.88636C138.717 9.11364 137.74 8.72727 136.497 8.72727C135.641 8.72727 134.876 8.91288 134.202 9.28409C133.535 9.6553 133.009 10.197 132.622 10.9091C132.236 11.6212 132.043 12.4848 132.043 13.5ZM153.216 24.4091C152.11 24.4091 151.106 24.2008 150.205 23.7841C149.303 23.3598 148.587 22.75 148.057 21.9545C147.527 21.1515 147.261 20.1818 147.261 19.0455C147.261 18.0455 147.458 17.2348 147.852 16.6136C148.246 15.9848 148.773 15.4924 149.432 15.1364C150.091 14.7803 150.818 14.5152 151.614 14.3409C152.417 14.1591 153.223 14.0152 154.034 13.9091C155.095 13.7727 155.955 13.6705 156.614 13.6023C157.28 13.5265 157.765 13.4015 158.068 13.2273C158.379 13.053 158.534 12.75 158.534 12.3182V12.2273C158.534 11.1061 158.227 10.2348 157.614 9.61364C157.008 8.99242 156.087 8.68182 154.852 8.68182C153.572 8.68182 152.568 8.96212 151.841 9.52273C151.114 10.0833 150.602 10.6818 150.307 11.3182L147.761 10.4091C148.216 9.34848 148.822 8.52273 149.58 7.93182C150.345 7.33333 151.178 6.91667 152.08 6.68182C152.989 6.43939 153.883 6.31818 154.761 6.31818C155.322 6.31818 155.966 6.38636 156.693 6.52273C157.428 6.65151 158.136 6.92045 158.818 7.32954C159.508 7.73864 160.08 8.35606 160.534 9.18182C160.989 10.0076 161.216 11.1136 161.216 12.5V24H158.534V21.6364H158.398C158.216 22.0152 157.913 22.4205 157.489 22.8523C157.064 23.2841 156.5 23.6515 155.795 23.9545C155.091 24.2576 154.231 24.4091 153.216 24.4091ZM153.625 22C154.686 22 155.58 21.7917 156.307 21.375C157.042 20.9583 157.595 20.4205 157.966 19.7614C158.345 19.1023 158.534 18.4091 158.534 17.6818V15.2273C158.42 15.3636 158.17 15.4886 157.784 15.6023C157.405 15.7083 156.966 15.803 156.466 15.8864C155.973 15.9621 155.492 16.0303 155.023 16.0909C154.561 16.1439 154.186 16.1894 153.898 16.2273C153.201 16.3182 152.549 16.4659 151.943 16.6705C151.345 16.8674 150.86 17.1667 150.489 17.5682C150.125 17.9621 149.943 18.5 149.943 19.1818C149.943 20.1136 150.288 20.8182 150.977 21.2955C151.674 21.7652 152.557 22 153.625 22ZM168.793 13.5V24H166.111V6.54545H168.702V9.27273H168.929C169.338 8.38636 169.959 7.67424 170.793 7.13636C171.626 6.59091 172.702 6.31818 174.02 6.31818C175.202 6.31818 176.236 6.56061 177.122 7.04545C178.009 7.52273 178.698 8.25 179.19 9.22727C179.683 10.197 179.929 11.4242 179.929 12.9091V24H177.247V13.0909C177.247 11.7197 176.891 10.6515 176.179 9.88636C175.467 9.11364 174.49 8.72727 173.247 8.72727C172.391 8.72727 171.626 8.91288 170.952 9.28409C170.285 9.6553 169.759 10.197 169.372 10.9091C168.986 11.6212 168.793 12.4848 168.793 13.5ZM191.92 24.3636C190.284 24.3636 188.875 23.9773 187.693 23.2045C186.511 22.4318 185.602 21.3674 184.966 20.0114C184.33 18.6553 184.011 17.1061 184.011 15.3636C184.011 13.5909 184.337 12.0265 184.989 10.6705C185.648 9.30682 186.564 8.24242 187.739 7.47727C188.92 6.70455 190.299 6.31818 191.875 6.31818C193.102 6.31818 194.208 6.54545 195.193 7C196.178 7.45455 196.985 8.09091 197.614 8.90909C198.242 9.72727 198.633 10.6818 198.784 11.7727H196.102C195.898 10.9773 195.443 10.2727 194.739 9.65909C194.042 9.03788 193.102 8.72727 191.92 8.72727C190.875 8.72727 189.958 9 189.17 9.54545C188.39 10.0833 187.78 10.8447 187.341 11.8295C186.909 12.8068 186.693 13.9545 186.693 15.2727C186.693 16.6212 186.905 17.7955 187.33 18.7955C187.761 19.7955 188.367 20.572 189.148 21.125C189.936 21.678 190.86 21.9545 191.92 21.9545C192.617 21.9545 193.25 21.8333 193.818 21.5909C194.386 21.3485 194.867 21 195.261 20.5455C195.655 20.0909 195.936 19.5455 196.102 18.9091H198.784C198.633 19.9394 198.258 20.8674 197.659 21.6932C197.068 22.5114 196.284 23.1629 195.307 23.6477C194.337 24.125 193.208 24.3636 191.92 24.3636ZM202.705 24V6.54545H205.386V24H202.705ZM204.068 3.63636C203.545 3.63636 203.095 3.45833 202.716 3.10227C202.345 2.74621 202.159 2.31818 202.159 1.81818C202.159 1.31818 202.345 0.890151 202.716 0.53409C203.095 0.17803 203.545 0 204.068 0C204.591 0 205.038 0.17803 205.409 0.53409C205.788 0.890151 205.977 1.31818 205.977 1.81818C205.977 2.31818 205.788 2.74621 205.409 3.10227C205.038 3.45833 204.591 3.63636 204.068 3.63636ZM215.435 24.4091C214.329 24.4091 213.325 24.2008 212.423 23.7841C211.522 23.3598 210.806 22.75 210.276 21.9545C209.745 21.1515 209.48 20.1818 209.48 19.0455C209.48 18.0455 209.677 17.2348 210.071 16.6136C210.465 15.9848 210.991 15.4924 211.651 15.1364C212.31 14.7803 213.037 14.5152 213.832 14.3409C214.635 14.1591 215.442 14.0152 216.253 13.9091C217.313 13.7727 218.173 13.6705 218.832 13.6023C219.499 13.5265 219.984 13.4015 220.287 13.2273C220.598 13.053 220.753 12.75 220.753 12.3182V12.2273C220.753 11.1061 220.446 10.2348 219.832 9.61364C219.226 8.99242 218.306 8.68182 217.071 8.68182C215.791 8.68182 214.787 8.96212 214.06 9.52273C213.332 10.0833 212.821 10.6818 212.526 11.3182L209.98 10.4091C210.435 9.34848 211.041 8.52273 211.798 7.93182C212.563 7.33333 213.397 6.91667 214.298 6.68182C215.207 6.43939 216.101 6.31818 216.98 6.31818C217.541 6.31818 218.185 6.38636 218.912 6.52273C219.647 6.65151 220.355 6.92045 221.037 7.32954C221.726 7.73864 222.298 8.35606 222.753 9.18182C223.207 10.0076 223.435 11.1136 223.435 12.5V24H220.753V21.6364H220.616C220.435 22.0152 220.132 22.4205 219.707 22.8523C219.283 23.2841 218.719 23.6515 218.014 23.9545C217.31 24.2576 216.45 24.4091 215.435 24.4091ZM215.844 22C216.904 22 217.798 21.7917 218.526 21.375C219.26 20.9583 219.813 20.4205 220.185 19.7614C220.563 19.1023 220.753 18.4091 220.753 17.6818V15.2273C220.639 15.3636 220.389 15.4886 220.003 15.6023C219.624 15.7083 219.185 15.803 218.685 15.8864C218.192 15.9621 217.711 16.0303 217.241 16.0909C216.779 16.1439 216.404 16.1894 216.116 16.2273C215.42 16.3182 214.768 16.4659 214.162 16.6705C213.563 16.8674 213.079 17.1667 212.707 17.5682C212.344 17.9621 212.162 18.5 212.162 19.1818C212.162 20.1136 212.507 20.8182 213.196 21.2955C213.893 21.7652 214.776 22 215.844 22ZM231.011 0.727272V24H228.33V0.727272H231.011Z" fill="black"/>
</svg>
