<svg width="178" height="51" viewBox="0 0 178 51" fill="none" xmlns="http://www.w3.org/2000/svg">
<path d="M11.2998 21.462L22.7298 31.012L39.1698 23.402L27.4398 14.332L11.2998 21.462Z" fill="black"/>
<path d="M34.4696 1.79111C28.9796 -0.388895 23.0596 -0.578894 17.5096 1.22111C16.6796 0.421106 15.4196 0.151106 14.3096 0.661106C12.8696 1.32111 12.2396 3.03111 12.9096 4.47111C13.5796 5.91111 15.2796 6.54111 16.7196 5.87111C17.7996 5.37111 18.4196 4.30111 18.3896 3.18111C23.8496 1.48111 29.6896 1.85111 34.9996 4.34111C46.3696 9.65111 51.3696 23.2811 46.1996 34.7211C45.0996 37.1611 43.6096 39.3611 41.7496 41.2711C41.3496 41.6811 41.3396 42.3311 41.7396 42.7511C42.1596 43.1911 42.8596 43.2011 43.2796 42.7711C45.3096 40.6811 46.9496 38.2711 48.1496 35.5911C54.0296 22.5511 47.7696 7.07111 34.4796 1.79111H34.4696Z" fill="black"/>
<path d="M42.63 23.6905H42.66C43.28 23.6305 43.74 23.0705 43.65 22.4605C43.03 18.2605 40.99 14.4005 37.84 11.5005C34.39 8.32055 29.9 6.56055 25.2 6.56055C18.67 6.56055 12.72 9.95055 9.34997 15.3905C9.20997 15.3905 9.06997 15.3805 8.92997 15.3905C7.34997 15.5605 6.21997 16.9805 6.38997 18.5505C6.55997 20.1305 7.97997 21.2605 9.54997 21.0905C11.13 20.9205 12.26 19.5005 12.09 17.9305C12.02 17.3005 11.75 16.7505 11.36 16.3205C14.35 11.6605 19.53 8.76055 25.2 8.76055C29.35 8.76055 33.31 10.3105 36.35 13.1205C39.13 15.6805 40.92 19.0805 41.47 22.7705C41.55 23.3405 42.05 23.7505 42.62 23.7005L42.63 23.6905Z" fill="black"/>
<path d="M35.36 43.9702C33.84 44.1402 32.73 45.4702 32.82 46.9802C30.39 47.8302 27.84 48.2702 25.21 48.2702C12.49 48.2702 2.15 37.9302 2.15 25.2102C2.15 18.9902 4.67 13.0402 9.1 8.71017C9.51 8.31017 9.54 7.66017 9.15 7.23017C8.75 6.78017 8.04 6.75017 7.61 7.17017C2.76 11.9102 0 18.4202 0 25.2102C0 39.1002 11.3 50.4102 25.2 50.4102C28.15 50.4102 31.01 49.9102 33.73 48.9302C34.32 49.4702 35.12 49.7702 35.97 49.6802C37.55 49.5102 38.68 48.0902 38.51 46.5202C38.34 44.9402 36.92 43.8102 35.35 43.9802L35.36 43.9702Z" fill="black"/>
<path d="M42.36 33.5702C43.91 33.2302 44.89 31.7002 44.55 30.1502C44.4 29.4702 44.02 28.9102 43.51 28.5202L46.72 27.0302L46.66 24.3902L21.38 36.0902L3.79004 21.4102L3.98004 24.0302L6.64004 26.2602C6.61004 26.3802 6.58004 26.5002 6.59004 26.6302C6.93004 31.1202 8.85004 35.2902 12.08 38.4802C15.59 41.9502 20.25 43.8602 25.19 43.8602C32.31 43.8602 38.7 39.8402 41.84 33.6202C42.01 33.6202 42.18 33.6002 42.35 33.5602L42.36 33.5702ZM25.2 41.6702C20.84 41.6702 16.73 39.9802 13.63 36.9202C11.22 34.5402 9.64004 31.5302 9.03004 28.2602L21.52 38.7502L38.89 30.6702C38.89 30.9002 38.89 31.1402 38.95 31.3802C39.08 31.9602 39.38 32.4702 39.78 32.8502C36.97 38.2102 31.4 41.6702 25.2 41.6702Z" fill="black"/>
<path d="M61.6899 14.3804C62.1499 13.4204 62.7899 12.6804 63.6199 12.1404C64.4499 11.6104 65.4099 11.3404 66.5199 11.3404C67.3099 11.3404 68.0799 11.5204 68.8199 11.8804C69.5599 12.2404 70.2099 12.7504 70.7599 13.4104C71.3099 14.0704 71.6999 14.8204 71.9399 15.6604H75.8199C75.5099 14.0604 74.9199 12.6604 74.0499 11.4504C73.1799 10.2404 72.0899 9.30039 70.7899 8.64039C69.4899 7.98039 68.0699 7.65039 66.5199 7.65039C64.6499 7.65039 63.0099 8.07039 61.5899 8.90039C60.1699 9.74039 59.0799 10.9104 58.2999 12.4404C57.5199 13.9604 57.1299 15.7204 57.1299 17.7304V25.1404C57.1299 27.1404 57.5199 28.9104 58.2999 30.4304C59.0799 31.9504 60.1799 33.1304 61.5899 33.9604C63.0099 34.7904 64.6499 35.2004 66.5199 35.2004C68.0499 35.2004 69.4699 34.8704 70.7699 34.2104C72.0699 33.5504 73.1599 32.6104 74.0399 31.4004C74.9199 30.1904 75.5099 28.7804 75.8199 27.1904H71.9399C71.6999 28.0904 71.3099 28.8704 70.7599 29.5304C70.2099 30.1904 69.5699 30.6804 68.8299 31.0104C68.0899 31.3404 67.3199 31.5104 66.5199 31.5104C65.4199 31.5104 64.4499 31.2504 63.6199 30.7204C62.7899 30.1904 62.1499 29.4504 61.6899 28.4804C61.2299 27.5104 60.9999 26.4004 60.9999 25.1404V17.7304C60.9999 16.4604 61.2299 15.3404 61.6899 14.3804Z" fill="black"/>
<path d="M86.8797 15.3814C85.7197 15.3814 84.6597 15.6914 83.6997 16.3214C82.9397 16.8214 82.2897 17.4914 81.7597 18.3114V7.94141H77.9697V34.9214H81.7597V22.6714C81.7597 21.4914 82.0997 20.5914 82.7697 19.9414C83.4397 19.3014 84.3997 18.9714 85.6397 18.9714C86.8797 18.9714 87.8997 19.3414 88.6097 20.0814C89.3197 20.8214 89.6697 21.8714 89.6697 23.2314V34.9014H93.4597V23.2114C93.4597 20.7114 92.8897 18.7814 91.7397 17.4114C90.5997 16.0414 88.9797 15.3614 86.8897 15.3614L86.8797 15.3814Z" fill="black"/>
<path d="M100.15 15.6602H96.3604V34.9202H100.15V15.6602Z" fill="black"/>
<path d="M115.36 16.3009C114.39 15.6909 113.22 15.3809 111.86 15.3809C110.71 15.3809 109.66 15.6909 108.72 16.3009C107.97 16.7909 107.35 17.4409 106.83 18.2509V15.6609H103.04V42.7609H106.83V32.4409C107.24 33.2309 107.81 33.8709 108.54 34.3409C109.43 34.9209 110.48 35.2009 111.68 35.2009C113.08 35.2009 114.28 34.8909 115.28 34.2809C116.28 33.6709 117.04 32.7809 117.56 31.6209C118.08 30.4609 118.34 29.0609 118.34 27.4309V23.2409C118.34 21.5809 118.09 20.1709 117.58 18.9909C117.07 17.8109 116.33 16.9209 115.36 16.3109V16.3009ZM114.55 27.4309C114.55 28.8209 114.21 29.8909 113.52 30.6509C112.83 31.4109 111.87 31.7909 110.62 31.7909C109.82 31.7909 109.13 31.6409 108.57 31.3309C108.01 31.0209 107.58 30.5809 107.28 29.9909C106.98 29.4109 106.83 28.7009 106.83 27.8709V22.6209C106.83 21.8209 106.98 21.1309 107.28 20.5509C107.58 19.9709 108.01 19.5409 108.57 19.2409C109.13 18.9409 109.82 18.7909 110.62 18.7909C111.87 18.7909 112.84 19.1809 113.52 19.9609C114.21 20.7409 114.55 21.8309 114.55 23.2409V27.4209V27.4309Z" fill="black"/>
<path d="M136.57 19.8314H125.03V7.94141H121.24V34.9214H125.03V23.4314H136.57V34.9214H140.36V7.94141H136.57V19.8314Z" fill="black"/>
<path d="M155.43 27.8104C155.43 29.0204 155.09 29.9604 154.41 30.6104C153.73 31.2704 152.77 31.5904 151.53 31.5904C150.29 31.5904 149.31 31.2204 148.63 30.4904C147.94 29.7504 147.6 28.7104 147.6 27.3604V15.6504H143.81V27.3604C143.81 29.8504 144.39 31.7704 145.55 33.1404C146.71 34.5104 148.35 35.1904 150.48 35.1904C151.78 35.1904 152.87 34.8704 153.76 34.2204C154.48 33.7004 155.03 33.0704 155.43 32.3404V34.9004H159.2V15.6604H155.43V27.8204V27.8104Z" fill="black"/>
<path d="M176.64 18.9814C176.13 17.8014 175.39 16.9114 174.42 16.3014C173.45 15.6914 172.28 15.3814 170.92 15.3814C169.77 15.3814 168.72 15.6914 167.78 16.3014C167.03 16.7914 166.41 17.4414 165.89 18.2514V7.94141H162.1V34.9214H165.89V32.4314C166.3 33.2214 166.87 33.8614 167.6 34.3314C168.49 34.9114 169.54 35.1914 170.74 35.1914C172.14 35.1914 173.34 34.8814 174.34 34.2714C175.34 33.6614 176.1 32.7714 176.62 31.6114C177.14 30.4514 177.4 29.0514 177.4 27.4214V23.2314C177.4 21.5714 177.15 20.1614 176.64 18.9814ZM173.61 27.4214C173.61 28.8114 173.27 29.8814 172.58 30.6414C171.89 31.4014 170.93 31.7814 169.68 31.7814C168.88 31.7814 168.19 31.6314 167.63 31.3214C167.07 31.0114 166.64 30.5714 166.34 29.9814C166.04 29.4014 165.89 28.6914 165.89 27.8614V22.6114C165.89 21.8114 166.04 21.1214 166.34 20.5414C166.64 19.9614 167.07 19.5314 167.63 19.2314C168.19 18.9314 168.88 18.7814 169.68 18.7814C170.93 18.7814 171.9 19.1714 172.58 19.9514C173.27 20.7314 173.61 21.8214 173.61 23.2314V27.4114V27.4214Z" fill="black"/>
<path d="M98.2504 7.94141C97.2004 7.94141 96.3604 8.79141 96.3604 9.83141C96.3604 10.8714 97.2104 11.7214 98.2504 11.7214C99.2904 11.7214 100.14 10.8714 100.14 9.83141C100.14 8.79141 99.2904 7.94141 98.2504 7.94141Z" fill="black"/>
</svg>
