<svg width="289" height="68" viewBox="0 0 289 68" fill="none" xmlns="http://www.w3.org/2000/svg">
<path d="M84.2642 44V29.4545H93.8949V31.9901H87.3395V35.456H93.2557V37.9915H87.3395V44H84.2642ZM99.9634 44V29.4545H105.702C106.801 29.4545 107.738 29.651 108.515 30.044C109.296 30.4323 109.89 30.9839 110.297 31.6989C110.709 32.4091 110.915 33.2448 110.915 34.206C110.915 35.1719 110.707 36.0028 110.29 36.6989C109.873 37.3902 109.27 37.9205 108.479 38.2898C107.693 38.6591 106.741 38.8438 105.624 38.8438H101.782V36.3722H105.127C105.714 36.3722 106.202 36.2917 106.59 36.1307C106.978 35.9697 107.267 35.7282 107.456 35.4062C107.65 35.0843 107.748 34.6842 107.748 34.206C107.748 33.723 107.65 33.3158 107.456 32.9844C107.267 32.6529 106.976 32.402 106.583 32.2315C106.194 32.0563 105.704 31.9688 105.113 31.9688H103.039V44H99.9634ZM107.819 37.3807L111.434 44H108.039L104.502 37.3807H107.819ZM119.596 44H116.3L121.321 29.4545H125.284L130.299 44H127.003L123.36 32.7784H123.246L119.596 44ZM119.39 38.2827H127.174V40.6832H119.39V38.2827ZM148.216 29.4545V44H145.559L139.231 34.8452H139.125V44H136.049V29.4545H138.748L145.027 38.6023H145.154V29.4545H148.216ZM154.756 44V29.4545H157.832V35.8679H158.023L163.258 29.4545H166.944L161.546 35.9673L167.008 44H163.329L159.344 38.0199L157.832 39.8665V44H154.756ZM172.545 44V29.4545H175.621V41.4645H181.857V44H172.545ZM190.968 29.4545V44H187.893V29.4545H190.968ZM209.665 29.4545V44H207.009L200.68 34.8452H200.574V44H197.499V29.4545H200.197L206.476 38.6023H206.604V29.4545H209.665ZM224.835 44V29.4545H230.573C231.676 29.4545 232.616 29.6652 233.393 30.0866C234.169 30.5033 234.761 31.0833 235.168 31.8267C235.58 32.5653 235.786 33.4176 235.786 34.3835C235.786 35.3494 235.578 36.2017 235.161 36.9403C234.745 37.679 234.141 38.2543 233.35 38.6662C232.564 39.0781 231.612 39.2841 230.495 39.2841H226.837V36.8196H229.998C230.59 36.8196 231.077 36.7178 231.461 36.5142C231.849 36.3059 232.138 36.0194 232.327 35.6548C232.522 35.2855 232.619 34.8617 232.619 34.3835C232.619 33.9006 232.522 33.4792 232.327 33.1193C232.138 32.7547 231.849 32.473 231.461 32.2741C231.073 32.0705 230.58 31.9688 229.984 31.9688H227.91V44H224.835ZM242.611 44H239.316L244.337 29.4545H248.3L253.314 44H250.019L246.375 32.7784H246.262L242.611 44ZM242.405 38.2827H250.189V40.6832H242.405V38.2827ZM259.065 44V29.4545H264.804C265.902 29.4545 266.84 29.651 267.616 30.044C268.397 30.4323 268.992 30.9839 269.399 31.6989C269.811 32.4091 270.017 33.2448 270.017 34.206C270.017 35.1719 269.808 36.0028 269.392 36.6989C268.975 37.3902 268.371 37.9205 267.581 38.2898C266.795 38.6591 265.843 38.8438 264.725 38.8438H260.883V36.3722H264.228C264.815 36.3722 265.303 36.2917 265.691 36.1307C266.08 35.9697 266.368 35.7282 266.558 35.4062C266.752 35.0843 266.849 34.6842 266.849 34.206C266.849 33.723 266.752 33.3158 266.558 32.9844C266.368 32.6529 266.077 32.402 265.684 32.2315C265.296 32.0563 264.806 31.9688 264.214 31.9688H262.14V44H259.065ZM266.92 37.3807L270.535 44H267.14L263.603 37.3807H266.92ZM276.19 44V29.4545H279.265V35.8679H279.457L284.691 29.4545H288.377L282.98 35.9673L288.441 44H284.762L280.778 38.0199L279.265 39.8665V44H276.19Z" fill="black"/>
<circle cx="34" cy="34" r="32.5" stroke="black" stroke-width="3"/>
<path d="M37 14H18V17H21V41.5H17V44.5H28V41.5H24V29.5H43C49 29.5 49 41.5 43 41.5H36V36H34V52H30V55H41V52H36.5V44.5H44.5C53 44.5 53 26.5 44.5 26.5H24V17H33.5V21H37V14Z" fill="black"/>
</svg>
