<svg width="373" height="275" viewBox="0 0 373 275" fill="none" xmlns="http://www.w3.org/2000/svg">
<path fill-rule="evenodd" clip-rule="evenodd" d="M0 139.458L19.489 15.5636L42.633 14.3916L34.53 64.2656L52.449 63.3516L60.553 13.4846L83.69 12.3066L64.201 136.201L41.062 137.379L48.767 86.0976L30.848 87.0046L23.145 138.287L0 139.458Z" fill="black"/>
<path fill-rule="evenodd" clip-rule="evenodd" d="M122.635 89.9205L115.569 133.294L92.5067 134.465L99.5747 91.0906L87.6807 12.1845L113.148 10.8975L116.372 58.5825L136.531 9.70655L159.186 8.56055L122.635 89.9205Z" fill="black"/>
<path fill-rule="evenodd" clip-rule="evenodd" d="M195.814 37.3114C195.982 36.3904 196.039 35.4184 195.989 34.4014C195.898 32.6894 195.344 31.4284 194.309 30.6174C193.273 29.8184 191.547 29.4714 189.14 29.5944L182.71 29.9224L176.602 68.2554L182.466 67.9544C185.625 67.7934 187.929 66.9684 189.39 65.4694C190.839 63.9694 191.838 61.6004 192.372 58.3514L195.814 37.3114ZM215.592 57.2504C214.615 63.3194 213.063 68.4045 210.932 72.5115C208.81 76.6235 206.196 79.9635 203.1 82.5375C200.01 85.1125 196.451 87.0115 192.436 88.2345C188.413 89.4575 184.024 90.1904 179.253 90.4344L172.909 90.7575L166.478 130.713L143.333 131.89L163.324 8.27145L192.815 6.77145C196.722 6.57245 200.295 6.75345 203.518 7.31845C206.737 7.87745 209.517 8.92145 211.853 10.4404C214.183 11.9594 216.03 13.9984 217.394 16.5614C218.759 19.1224 219.544 22.3074 219.737 26.1124C219.885 29.0544 219.654 32.3944 219.037 36.1334L215.592 57.2504Z" fill="black"/>
<path fill-rule="evenodd" clip-rule="evenodd" d="M212.345 128.423L232.343 4.88683L286.65 2.04883L283.051 24.8648L251.714 26.4548L247.364 53.3388L273.075 52.0388L269.395 74.7768L243.759 76.0788L239.086 104.59L270.263 103.014L266.659 125.668L212.345 128.423Z" fill="black"/>
<path fill-rule="evenodd" clip-rule="evenodd" d="M168.575 176.8C168.832 175.5 168.935 174.341 168.883 173.325C168.71 169.843 166.424 168.214 162.035 168.434L153.996 168.838L148.778 200.846L156.726 200.441C159.725 200.286 161.945 199.333 163.394 197.57C164.829 195.8 165.781 193.65 166.239 191.102L168.575 176.8ZM114.543 270.812L134.533 147.271L165.872 145.682C174.225 145.263 180.643 146.557 185.122 149.581C189.595 152.607 192.015 157.73 192.382 164.964C192.556 168.285 192.311 171.948 191.655 175.951L189.382 189.923C188.559 194.854 186.782 199.333 184.059 203.362C181.345 207.397 178.093 210.879 174.323 213.808C176.221 215.217 177.611 216.736 178.499 218.39C179.395 220.032 179.908 222.336 180.063 225.277C180.128 226.616 180.128 228.123 180.05 229.79C179.973 231.457 179.851 233.341 179.69 235.447L178.197 252.117C178.132 252.979 178.093 253.79 178.08 254.537C178.062 255.296 178.075 256.042 178.113 256.788C178.23 259.093 178.538 261.108 179.02 262.833C179.515 264.551 179.98 266.096 180.431 267.472L156.564 268.683C156.437 268.258 156.134 267.093 155.663 265.182C155.187 263.271 154.884 261.03 154.756 258.463C154.718 257.709 154.705 256.962 154.725 256.21C154.736 255.457 154.775 254.704 154.847 253.945L156.494 237.19C156.559 236.271 156.597 235.44 156.61 234.688C156.623 233.933 156.617 233.206 156.584 232.512C156.488 230.638 156.204 229.094 155.741 227.879C155.277 226.668 154.711 225.722 154.029 225.026C153.347 224.338 152.555 223.88 151.667 223.655C150.766 223.437 149.832 223.346 148.868 223.399L145.172 223.584L137.681 269.635L114.543 270.812Z" fill="black"/>
<path fill-rule="evenodd" clip-rule="evenodd" d="M189.454 267.01L209.521 143.391L232.66 142.213L212.67 265.832L189.454 267.01Z" fill="black"/>
<path fill-rule="evenodd" clip-rule="evenodd" d="M310.919 138.209L271.253 262.91L240.804 264.454L241.099 141.756L264.398 140.571L261.026 232.815L287.62 139.393L310.919 138.209Z" fill="black"/>
<path fill-rule="evenodd" clip-rule="evenodd" d="M298.425 261.481L318.422 137.945L372.73 135.107L369.139 157.929L337.8 159.52L333.443 186.404L359.156 185.097L355.481 207.835L329.846 209.137L325.167 237.655L356.344 236.071L352.745 258.726L298.425 261.481Z" fill="black"/>
<path fill-rule="evenodd" clip-rule="evenodd" d="M116.538 160.993C115.547 158.419 114.028 156.238 111.982 154.46C109.928 152.684 107.297 151.353 104.084 150.47C100.866 149.589 96.9849 149.235 92.4279 149.408L38.7739 152.212L35.2949 175.113L88.5079 172.167C90.7609 172.051 92.3259 172.566 93.2129 173.698C94.1079 174.837 94.6029 176.312 94.6939 178.133C94.7269 178.829 94.7139 179.568 94.6419 180.347C94.5719 181.132 94.4809 181.931 94.3649 182.742L85.2839 238.865C85.0389 240.333 84.7049 241.729 84.2929 243.068C83.8749 244.4 83.2879 245.591 82.5419 246.622C81.7829 247.65 80.8619 248.505 79.7689 249.175C78.6739 249.853 77.3739 250.224 75.8749 250.302L68.5629 250.669L79.6799 182.373L56.5469 183.534L41.8199 274.501L72.1929 272.964C78.1399 272.662 83.2109 271.573 87.4149 269.694C91.6169 267.815 95.1369 265.318 97.9889 262.189C100.84 259.063 103.087 255.42 104.721 251.254C106.37 247.091 107.572 242.567 108.344 237.694L117.421 181.493C117.735 179.381 117.98 177.342 118.154 175.371C118.322 173.403 118.359 171.51 118.27 169.689C118.108 166.471 117.528 163.581 116.538 160.993Z" fill="black"/>
<path fill-rule="evenodd" clip-rule="evenodd" d="M329.094 31.1908L326.765 45.4908C326.302 48.0408 325.349 50.1898 323.914 51.9608C322.465 53.7238 320.244 54.6828 317.245 54.8298L309.289 55.2368L314.516 23.2358L322.548 22.8228C326.937 22.6048 329.23 24.2328 329.404 27.7158C329.456 28.7328 329.352 29.8908 329.094 31.1908ZM370.306 97.8258L344.888 99.1988C341.275 99.1958 339.638 97.2858 339.822 94.1778L340.209 89.8378C340.37 87.7388 340.493 85.8538 340.569 84.1808C340.641 82.5188 340.648 81.0068 340.584 79.6678C340.429 76.7268 339.914 74.4298 339.018 72.7808C338.13 71.1338 336.734 69.6088 334.842 68.1978C338.614 65.2698 341.858 61.7878 344.58 57.7598C347.309 53.7238 349.079 49.2448 349.903 44.3128L352.174 30.3488C352.831 26.3378 353.077 22.6748 352.909 19.3538C352.541 12.1198 350.114 6.99682 345.641 3.97282C341.162 0.946824 334.744 -0.346176 326.391 0.0788242L295.053 1.66782L275.064 125.204L298.201 124.033L305.692 77.9748L309.387 77.7888C310.351 77.7368 311.28 77.8268 312.186 78.0448C313.082 78.2778 313.866 78.7358 314.548 79.4168C315.225 80.1118 315.796 81.0638 316.261 82.2748C316.725 83.4848 317.007 85.0288 317.105 86.9018C317.136 87.5968 317.142 88.3238 317.129 89.0778C317.116 89.8308 317.078 90.6668 317.014 91.5808L315.28 109.434C314.485 118.006 318.9 122.906 326.253 122.643L366.836 120.609L370.306 97.8258Z" fill="black"/>
</svg>
