<svg width="740" height="118" viewBox="0 0 740 118" fill="none" xmlns="http://www.w3.org/2000/svg">
<path fill-rule="evenodd" clip-rule="evenodd" d="M731.091 4.12989V26.1604C719.678 21.8517 709.516 19.6732 700.623 19.6732C695.355 19.6732 691.16 20.6487 688.006 22.5347C684.851 24.4369 683.242 26.7783 683.242 29.5423C683.242 33.2168 686.802 36.4845 693.973 39.4114L714.686 49.4918C731.433 57.4749 739.741 68.0753 739.741 81.3914C739.741 92.4635 735.335 101.292 726.441 107.828C717.613 114.429 705.728 117.697 690.932 117.697C684.103 117.697 677.974 117.405 672.528 116.787C667.081 116.202 660.821 114.998 653.879 113.275V90.22C666.609 94.5286 678.202 96.7072 688.64 96.7072C701.094 96.7072 707.289 93.0977 707.289 85.8138C707.289 82.1881 704.752 79.2616 699.598 76.9689L676.592 67.1648C668.105 63.3279 661.797 58.6779 657.667 53.1662C653.602 47.6058 651.537 41.2324 651.537 33.9485C651.537 23.754 655.83 15.5433 664.316 9.29991C672.869 3.10526 684.218 0 698.33 0C702.915 0 708.199 0.406302 714.052 1.15427C719.954 1.951 725.628 2.92649 731.091 4.12989Z" fill="#009999"/>
<path fill-rule="evenodd" clip-rule="evenodd" d="M79.5054 4.12989V26.1604C68.0916 21.8517 57.9462 19.6732 49.0526 19.6732C43.7684 19.6732 39.5902 20.6487 36.4358 22.5347C33.2818 24.4369 31.6721 26.7783 31.6721 29.5423C31.6721 33.2168 35.2815 36.4845 42.4517 39.4114L63.1654 49.4918C79.8467 57.4749 88.1715 68.0753 88.1715 81.3914C88.1715 92.4635 83.749 101.292 74.9204 107.828C66.0268 114.429 54.2067 117.697 39.3627 117.697C32.5338 117.697 26.3879 117.405 20.9412 116.787C15.4946 116.202 9.29991 114.998 2.30891 113.275V90.22C15.0883 94.5286 26.6808 96.7072 37.0537 96.7072C49.508 96.7072 55.7027 93.0977 55.7027 85.8138C55.7027 82.1881 53.1825 79.2616 48.0771 76.9689L25.0711 67.1648C16.5188 63.3279 10.2104 58.6779 6.14589 53.1662C2.016 47.6058 0 41.2324 0 33.9485C0 23.754 4.25991 15.5433 12.7956 9.29991C21.2829 3.10526 32.6476 0 46.7603 0C51.394 0 56.6132 0.406302 62.5312 1.15427C68.3845 1.951 74.0587 2.92649 79.5054 4.12989Z" fill="#009999"/>
<path fill-rule="evenodd" clip-rule="evenodd" d="M103.243 2.06445H136.98V115.632H103.243V2.06445Z" fill="#009999"/>
<path fill-rule="evenodd" clip-rule="evenodd" d="M245.67 2.06445V23.0548H195.544V48.2393H239.02V67.1645H195.544V93.6016H246.694V115.632H163.075V2.06445H245.67Z" fill="#009999"/>
<path fill-rule="evenodd" clip-rule="evenodd" d="M403.169 2.06445V115.632H371.674V40.7279L338.996 116.673H319.55L288.122 40.7279V115.632H265.344V2.06445H306.527L334.638 71.587L364.051 2.06445H403.169Z" fill="#009999"/>
<path fill-rule="evenodd" clip-rule="evenodd" d="M511.811 2.06445V23.0548H461.959V48.2393H505.435V67.1645H461.959V93.6016H512.835V115.632H429.217V2.06445H511.811Z" fill="#009999"/>
<path fill-rule="evenodd" clip-rule="evenodd" d="M630.19 2.06445V115.632H594.405L554.247 42.7926V115.632H531.483V2.06445H568.311L607.429 73.6521V2.06445H630.19Z" fill="#009999"/>
</svg>
