<svg width="567" height="123" viewBox="0 0 567 123" fill="none" xmlns="http://www.w3.org/2000/svg">
<path d="M38.3131 1.13945C36.1798 2.47279 36.5798 9.93946 41.3798 52.6061C43.9131 76.3395 44.0464 80.6061 42.5798 93.2728C40.1798 113.539 40.3131 120.739 43.1131 121.806C44.3131 122.339 45.9131 122.073 46.5798 121.406C47.2464 120.739 50.1798 111.006 53.1131 99.6728L58.4464 79.2728L51.5131 42.6061C47.6464 22.4728 44.3131 4.60612 44.0464 2.87279C43.3798 -0.193878 41.5131 -0.860545 38.3131 1.13945Z" fill="black"/>
<path d="M77.5134 1.53987C77.2468 2.4732 76.3134 7.80654 75.5134 13.2732C74.5801 18.7399 71.5134 34.6065 68.5801 48.6065C62.5801 77.8065 62.5801 79.1399 69.2468 104.607C73.9134 122.207 75.7801 125.14 79.5134 120.607C80.9801 118.873 80.8468 114.873 78.9801 97.2732C77.6468 85.5399 76.9801 74.8732 77.3801 73.6732C77.7801 72.3399 79.6468 56.0732 81.5134 37.5399C84.1801 11.5399 84.5801 3.2732 83.3801 1.80654C81.5134 -0.46013 78.3134 -0.593463 77.5134 1.53987Z" fill="black"/>
<path d="M0.0463627 9.67276C-0.620304 11.5394 5.91303 27.8061 18.9797 56.7394C23.6464 67.1394 27.513 77.4061 27.513 79.5394C27.513 81.6728 24.4464 89.6728 20.8464 97.1394C14.313 110.473 12.8464 115.673 15.513 116.073C16.313 116.206 17.3797 116.339 18.0464 116.473C18.713 116.606 23.6464 109.539 28.8464 100.873C41.3797 80.0728 41.3797 80.2061 28.5797 55.6728C23.113 45.1394 15.7797 30.2061 12.1797 22.2061C7.3797 11.6728 4.9797 7.93943 3.24636 7.93943C1.91303 7.93943 0.446363 8.73943 0.0463627 9.67276Z" fill="black"/>
<path d="M111.913 16.2061C109.913 20.8728 102.446 36.3394 95.2464 50.6061C88.0464 64.8728 82.1797 78.0728 82.1797 79.9395C82.1797 81.8061 86.0464 89.9395 90.713 97.9395C102.713 118.339 102.713 118.339 105.38 116.073C106.58 115.139 107.513 113.673 107.513 112.873C107.513 112.073 104.58 105.273 100.846 97.6728C96.5797 88.8728 94.1797 82.2061 94.1797 79.1395C94.1797 75.9395 97.3797 67.2728 103.38 54.0728C116.446 25.5394 122.446 10.7394 121.513 9.27278C121.113 8.47278 119.513 7.93945 118.046 7.93945C116.046 7.93945 114.58 10.0728 111.913 16.2061Z" fill="black"/>
<path d="M382.713 32.7399C371.113 36.8733 363.513 48.2066 363.513 61.4066C363.513 70.8733 365.779 76.4733 372.446 83.0066C383.513 94.2066 400.713 94.6066 412.979 84.0733C420.046 78.0733 423.513 70.6066 423.513 61.2733C423.513 39.9399 402.979 25.5399 382.713 32.7399ZM403.646 42.0733C416.579 48.6066 419.246 65.8066 408.979 76.0733C398.179 87.0066 381.779 85.1399 374.446 72.0733C363.779 53.0066 384.179 32.0733 403.646 42.0733Z" fill="black"/>
<path d="M183.513 35.9408V39.9408H193.513H203.513V65.2741V90.6074H208.179H212.846V65.2741V39.9408H222.846H232.846V35.9408V31.9408H208.179H183.513V35.9408Z" fill="black"/>
<path d="M240.847 61.2741V90.6074H245.513H250.18V77.2741V63.9408H266.847H283.513V75.1408C283.513 89.0074 284.047 90.6074 288.98 90.6074H292.847V61.1408V31.8074L288.713 32.2074L284.58 32.6074V43.5408V54.6074H267.38H250.18V43.2741V31.9408H245.513H240.847V61.2741Z" fill="black"/>
<path d="M302.18 61.2728V90.6061H306.846H311.513V78.6061V66.6061H317.38C323.113 66.6061 323.38 66.8728 327.246 73.5394C329.38 77.4061 332.313 81.5394 333.646 82.8728C340.846 89.1394 355.113 93.2728 362.846 91.4061L366.313 90.4728L363.513 86.6061C361.913 84.3394 360.18 82.8728 359.513 83.2728C357.246 84.6061 345.513 81.1394 341.246 77.8061C338.846 75.9394 335.913 72.7394 334.846 70.4728C332.846 66.7394 332.846 66.6061 335.646 66.6061C340.313 66.6061 346.846 62.8728 349.246 58.7394C352.046 53.9394 352.18 46.3394 349.38 41.1394C345.78 34.0728 338.713 31.9394 319.246 31.9394H302.18V61.2728ZM337.246 41.4061C341.246 43.5394 342.18 45.1394 342.18 50.2061C342.18 56.8728 338.446 58.6061 323.913 58.6061H311.513V49.2728V39.9394H322.98C329.246 39.9394 335.646 40.6061 337.246 41.4061Z" fill="black"/>
<path d="M431.513 61.2741V90.6074H435.513H439.513V68.6074C439.513 56.4741 439.913 46.6074 440.579 46.6074C441.113 46.6074 449.246 56.4741 458.846 68.6074C474.846 89.0074 476.446 90.6074 480.446 90.6074H484.846V61.2741V31.9408H480.846H476.846L476.579 54.7408L476.179 77.5408L458.179 54.7408C441.513 33.5408 439.913 31.9408 435.913 31.9408H431.513V61.2741Z" fill="black"/>
<path d="M495.513 61.2741V90.6074H518.179H540.846V86.6074V82.6074H522.179H503.379L503.779 72.8741L504.179 63.2741L517.246 62.8741L530.179 62.4741V58.6074V54.6074H516.846H503.513V47.2741V39.9408H522.179H540.846V35.9408V31.9408H518.179H495.513V61.2741Z" fill="black"/>
</svg>
